<svg xmlns="http://www.w3.org/2000/svg" style="display: none;">

	<symbol id="icon-briefcase"  viewBox="0 0 16 16">
		<path d="M5.75 1.5H10.25C10.3875 1.5 10.5 1.6125 10.5 1.75V3H5.5V1.75C5.5 1.6125 5.6125 1.5 5.75 1.5ZM4 1.75V3H2C0.896875 3 0 3.89687 0 5V8H6H10H16V5C16 3.89687 15.1031 3 14 3H12V1.75C12 0.784375 11.2156 0 10.25 0H5.75C4.78438 0 4 0.784375 4 1.75ZM16 9H10V10C10 10.5531 9.55313 11 9 11H7C6.44688 11 6 10.5531 6 10V9H0V13C0 14.1031 0.896875 15 2 15H14C15.1031 15 16 14.1031 16 13V9Z" fill="current"/>
  </symbol>


	<symbol id='icon-experience' viewBox="0 0 16 16">
		<path d="M15.9577 5.74481C15.9074 5.5967 15.8149 5.46656 15.6915 5.37045C15.5681 5.27435 15.4192 5.21648 15.2633 5.204L10.7025 4.8416L8.72887 0.472777C8.66602 0.332066 8.56378 0.212553 8.43451 0.128661C8.30523 0.0447692 8.15444 8.47037e-05 8.00033 1.20304e-07C7.84622 -8.44631e-05 7.69537 0.0444345 7.56601 0.128184C7.43664 0.211934 7.33427 0.331335 7.27126 0.471977L5.29765 4.8416L0.736825 5.204C0.583589 5.21614 0.437094 5.27217 0.314867 5.36539C0.19264 5.45861 0.099856 5.58506 0.0476158 5.72963C-0.00462433 5.8742 -0.0141088 6.03076 0.0202971 6.18057C0.054703 6.33039 0.131542 6.46712 0.241623 6.57441L3.61204 9.86003L2.42004 15.0217C2.38384 15.1779 2.39544 15.3414 2.45333 15.491C2.51122 15.6405 2.61273 15.7693 2.74468 15.8604C2.87663 15.9516 3.03293 16.001 3.19331 16.0022C3.35368 16.0034 3.51072 15.9564 3.64404 15.8673L8.00007 12.9633L12.3561 15.8673C12.4924 15.9577 12.6531 16.0043 12.8166 16.0007C12.9801 15.9971 13.1386 15.9436 13.2708 15.8472C13.403 15.7508 13.5025 15.6163 13.5559 15.4617C13.6093 15.3071 13.6142 15.1399 13.5697 14.9825L12.1065 9.86243L15.7353 6.59681C15.9729 6.38241 16.0601 6.04801 15.9577 5.74481Z" fill="current"/>
	</symbol>


	<symbol id='icon-eye' viewBox="0 0 16 16">
		<path d="M1.00098 3.3999L15.001 12.3999" stroke="#C5C5C5" stroke-width="2" stroke-linecap="round"/>
		<path fill-rule="evenodd" clip-rule="evenodd" d="M2.88385 4.02844C4.16948 2.90662 5.88656 2 8.00028 2C10.2447 2 12.0419 3.02222 13.3503 4.23889C14.6503 5.44444 15.5197 6.88889 15.9336 7.88056C16.0253 8.1 16.0253 8.34444 15.9336 8.56389C15.6225 9.30922 15.0541 10.3087 14.239 11.2723L11.7287 9.67094C11.9065 9.21336 12.0003 8.72263 12.0003 8.22222C12.0003 7.16136 11.5789 6.14394 10.8287 5.3938C10.0786 4.64365 9.06115 4.22222 8.00028 4.22222C6.93942 4.22222 5.922 4.64365 5.17185 5.3938C5.15269 5.41296 5.13375 5.43229 5.11502 5.4518L2.88385 4.02844ZM0.667107 6.70514C0.412848 7.13254 0.213327 7.53417 0.0697266 7.88056C-0.0219401 8.1 -0.0219401 8.34444 0.0697266 8.56389C0.480838 9.55556 1.35028 11 2.65028 12.2056C3.95862 13.4222 5.75584 14.4444 8.00028 14.4444C9.29937 14.4444 10.4486 14.102 11.44 13.5776L9.08184 12.0732C8.73285 12.1713 8.36919 12.2222 8.00028 12.2222C6.93942 12.2222 5.922 11.8008 5.17185 11.0506C4.57485 10.4536 4.18605 9.68736 4.05219 8.86462L0.667107 6.70514ZM6.48871 10.419C6.53796 10.4528 6.58831 10.4849 6.63967 10.5153L6.48871 10.419ZM10.5697 8.93154C10.6928 8.48806 10.7028 8.00697 10.5753 7.53056C10.2669 6.37778 9.2475 5.60278 8.11417 5.55556C7.95306 5.55 7.85862 5.725 7.90862 5.88056C7.96695 6.05833 8.00028 6.24722 8.00028 6.44444C8.00028 6.70991 7.94185 6.96195 7.83716 7.18836L10.5697 8.93154Z" fill="current"/>
	</symbol>


	<symbol id='icon-filter' viewBox="0 0 16 16">
		<path d="M0.121712 1.71562C0.327962 1.27813 0.765462 1 1.24984 1H14.7498C15.2342 1 15.6717 1.27813 15.878 1.71562C16.0842 2.15312 16.0217 2.66875 15.7155 3.04375L9.99984 10.0281V14C9.99984 14.3781 9.78734 14.725 9.44671 14.8937C9.10609 15.0625 8.70296 15.0281 8.39984 14.8L6.39984 13.3C6.14671 13.1125 5.99984 12.8156 5.99984 12.5V10.0281L0.281087 3.04062C-0.0220383 2.66875 -0.0876633 2.15 0.121712 1.71562Z" fill="current"/>
	</symbol>

	<symbol id='icon-vector' viewBox="0 0 16 16">
		<path d="M8.87557e-05 5.98934C-0.0021161 6.12448 0.0368048 6.25708 0.111691 6.36959C0.186577 6.48209 0.293891 6.56918 0.419404 6.6193L6.8198 9.1798L9.38035 15.5807C9.42982 15.7045 9.51527 15.8106 9.62566 15.8854C9.73606 15.9601 9.86634 16 9.99966 16H10.0103C10.1453 15.9979 10.2765 15.9548 10.3865 15.8765C10.4965 15.7981 10.5801 15.6883 10.6263 15.5614L15.9594 0.89569C16.0031 0.776382 16.0117 0.647083 15.9843 0.523022C15.957 0.39896 15.8947 0.285302 15.8049 0.195433C15.7151 0.105564 15.6015 0.0432268 15.4775 0.0157628C15.3534 -0.0117012 15.2241 -0.00314809 15.1048 0.0404146L0.438737 5.37339C0.311786 5.41967 0.201878 5.5034 0.123552 5.61351C0.0452263 5.72362 0.00217346 5.85491 8.87557e-05 5.99001V5.98934Z" fill="current"/>
	</symbol>

	<symbol id='icon-time' viewBox="0 0 16 16">
		<path d="M7.992 0C3.576 0 0 3.584 0 8C0 12.416 3.576 16 7.992 16C12.416 16 16 12.416 16 8C16 3.584 12.416 0 7.992 0ZM11.2 11.2C11.126 11.2742 11.0381 11.333 10.9413 11.3731C10.8445 11.4133 10.7408 11.434 10.636 11.434C10.5312 11.434 10.4275 11.4133 10.3307 11.3731C10.2339 11.333 10.146 11.2742 10.072 11.2L7.44 8.568C7.36441 8.49391 7.30427 8.40555 7.26308 8.30805C7.22188 8.21055 7.20044 8.10585 7.2 8V4.8C7.2 4.36 7.56 4 8 4C8.44 4 8.8 4.36 8.8 4.8V7.672L11.2 10.072C11.512 10.384 11.512 10.888 11.2 11.2Z" fill="current"/>
	</symbol>

	<symbol id='icon-arrow' width="12" height="12" viewBox="0 0 12 12" fill="none" xmlns="http://www.w3.org/2000/svg">
		<g clip-path="url(#clip0_1_647)">
		<path d="M9.52949 6.52964C9.82246 6.23667 9.82246 5.76089 9.52949 5.46792L5.02949 0.967919C4.73652 0.674951 4.26074 0.674951 3.96777 0.967919C3.6748 1.26089 3.6748 1.73667 3.96777 2.02964L7.93809 5.99995L3.97012 9.97026C3.67715 10.2632 3.67715 10.739 3.97012 11.032C4.26309 11.325 4.73887 11.325 5.03184 11.032L9.53184 6.53198L9.52949 6.52964Z" fill="#747474"/>
		</g>
		<defs>
		<clipPath id="clip0_1_647">
		<rect width="12" height="12" fill="white" transform="translate(0 12) rotate(-90)"/>
		</clipPath>
		</defs>
	</symbol>
	

</svg>

